<?xml version="1.0" standalone="no"?>
<!DOCTYPE svg PUBLIC "-//W3C//DTD SVG 20010904//EN"
 "http://www.w3.org/TR/2001/REC-SVG-20010904/DTD/svg10.dtd">
<svg version="1.0" xmlns="http://www.w3.org/2000/svg"
 width="2068.000000pt" height="982.000000pt" viewBox="0 0 2068.000000 982.000000"
 preserveAspectRatio="xMidYMid meet">

<g transform="translate(0.000000,982.000000) scale(0.100000,-0.100000)"
fill="#000000" stroke="none">
<path d="M2729 9809 c-2 -4 -35 -1742 -34 -1746 0 -1 1083 -5 2407 -9 l2406
-7 6 44 c9 71 50 1698 44 1705 -7 6 -4827 20 -4829 13z"/>
<path d="M8220 8931 l0 -880 3333 -4 c2397 -3 3351 -7 3401 -15 294 -48 421
-151 473 -382 21 -94 24 -414 5 -505 -54 -250 -162 -357 -413 -409 -158 -32
-525 -36 -3676 -36 l-3123 0 0 -2440 0 -2440 1073 2 1072 3 3 1703 2 1702
1423 0 1424 0 34 -42 c47 -60 4750 -5152 4763 -5159 12 -6 2645 17 2651 23 2
2 -1060 1153 -2360 2558 -1300 1405 -2363 2556 -2362 2557 2 1 153 34 337 73
375 79 509 113 677 171 283 98 446 220 592 444 188 289 260 765 248 1645 -7
514 -28 758 -89 1050 -57 275 -138 456 -283 640 -200 252 -567 466 -944 550
-274 61 -382 62 -4523 67 l-3738 4 0 -880z"/>
<path d="M5400 5670 l0 -1910 -2695 0 -2695 0 0 -965 0 -965 2168 0 c1192 0
2886 -3 3765 -7 l1597 -6 0 2881 0 2882 -1070 0 -1070 0 0 -1910z"/>
<path d="M8185 1291 c-50 -13 -96 -41 -144 -90 -42 -43 -861 -1151 -861 -1165
0 -4 104 -5 232 -4 l232 3 300 412 c166 227 303 412 306 412 4 0 222 -306 349
-489 13 -20 11 -20 -263 -20 l-276 0 -120 -160 -120 -160 750 0 750 0 -405
568 c-249 348 -427 587 -460 619 -76 73 -170 98 -270 74z"/>
<path d="M12896 1286 c-21 -8 -54 -29 -72 -47 -64 -62 -64 -64 -64 -666 l0
-543 180 0 180 0 0 366 c0 201 4 364 8 362 5 -1 187 -158 406 -348 218 -190
416 -356 439 -370 34 -20 55 -25 107 -24 103 0 174 52 200 145 6 20 10 255 10
576 l0 543 -180 0 -180 0 -2 -366 -3 -367 -405 352 c-223 194 -422 361 -444
372 -50 27 -130 33 -180 15z"/>
<path d="M90 655 l0 -625 195 0 195 0 2 228 3 227 367 3 366 2 116 145 c64 79
116 147 116 150 0 2 -217 6 -482 7 l-483 3 0 80 0 80 397 3 396 2 113 143 c62
78 119 150 127 160 14 16 -20 17 -706 17 l-722 0 0 -625z"/>
<path d="M1670 655 l0 -625 623 0 622 0 128 160 127 160 -550 0 -550 0 0 85 0
85 398 0 397 0 111 138 112 137 -509 3 -509 2 0 80 0 80 423 0 422 1 120 151
c66 83 122 155 123 160 2 4 -332 8 -742 8 l-746 0 0 -625z"/>
<path d="M3445 1123 l-128 -158 604 -5 604 -5 47 -23 c57 -28 81 -63 81 -118
0 -54 -22 -88 -76 -116 l-42 -23 -612 -3 -613 -3 0 -319 0 -320 200 0 200 0 0
165 0 165 309 0 309 0 143 -165 143 -165 265 0 266 0 -207 206 c-114 113 -201
207 -195 208 143 41 232 111 286 226 23 49 26 67 26 165 0 99 -3 116 -27 168
-70 148 -240 239 -500 267 -51 5 -287 10 -524 10 l-432 0 -127 -157z"/>
<path d="M5424 1123 l-126 -158 603 -5 604 -5 48 -24 c52 -25 78 -64 80 -117
1 -48 -21 -82 -73 -112 l-45 -27 -612 -3 -613 -3 0 -319 0 -320 195 0 195 0 0
165 0 165 313 0 314 0 143 -165 143 -165 266 0 266 1 -207 205 c-114 113 -202
206 -195 208 215 62 326 209 315 419 -12 232 -193 370 -530 407 -54 5 -291 10
-527 10 l-431 0 -126 -157z"/>
<path d="M9860 1269 c-97 -12 -234 -55 -315 -97 -101 -53 -211 -165 -259 -262
-143 -296 -12 -629 309 -785 180 -87 189 -88 778 -93 l517 -4 0 391 0 391
-412 0 -413 0 -113 -133 -113 -132 328 -5 328 -5 3 -93 3 -92 -283 0 c-352 0
-407 12 -507 105 -61 57 -86 117 -85 200 2 150 121 266 301 294 42 6 214 11
410 11 l338 0 120 152 c66 84 122 156 123 160 5 11 -975 8 -1058 -3z"/>
<path d="M11130 655 l0 -625 618 0 618 0 126 157 126 158 -549 3 -549 2 0 85
0 85 398 0 398 0 111 138 111 137 -506 5 -507 5 -3 78 -3 77 423 0 423 0 123
154 c67 85 122 157 122 160 0 3 -333 6 -740 6 l-740 0 0 -625z"/>
<path d="M14925 1269 c-159 -17 -300 -82 -357 -165 -53 -77 -74 -214 -47 -317
30 -118 137 -200 309 -237 25 -5 225 -10 445 -10 428 0 509 -6 538 -41 19 -24
22 -70 6 -101 -25 -46 -45 -48 -592 -48 l-514 0 -85 -108 c-47 -59 -105 -131
-128 -160 l-43 -54 679 4 c662 4 681 5 759 26 220 61 315 175 315 378 0 169
-82 267 -267 321 -49 14 -131 17 -528 22 -354 5 -476 9 -492 19 -44 25 -44
103 0 136 28 20 40 21 517 26 l488 5 121 152 c67 84 121 154 121 157 0 9
-1157 4 -1245 -5z"/>
</g>
</svg>
